<?xml version="1.0" standalone="no"?>
<!DOCTYPE svg PUBLIC "-//W3C//DTD SVG 20010904//EN"
 "http://www.w3.org/TR/2001/REC-SVG-20010904/DTD/svg10.dtd">
<svg version="1.0" xmlns="http://www.w3.org/2000/svg"
 width="128.000000pt" height="128.000000pt" viewBox="0 0 128.000000 128.000000"
 preserveAspectRatio="xMidYMid meet">

<g transform="translate(0.000000,128.000000) scale(0.100000,-0.100000)"
fill="#000000" stroke="none">
<path d="M91 1206 c-49 -28 -50 -36 -51 -424 0 -394 1 -406 55 -430 14 -7 39
-12 55 -12 23 0 30 5 30 20 0 16 -7 20 -30 20 -33 0 -70 30 -70 58 0 37 26 56
81 62 l54 5 3 288 2 287 420 0 420 0 2 -287 3 -288 54 -5 c116 -12 108 -120
-9 -120 -43 0 -50 -3 -50 -20 0 -17 7 -20 50 -20 61 0 97 16 116 51 21 41 21
737 -1 778 -18 36 -60 53 -116 49 l-44 -3 -3 -47 -3 -48 -419 0 -419 0 -3 48
-3 47 -50 2 c-28 2 -61 -3 -74 -11z m89 -346 l0 -320 -31 0 c-17 0 -39 -5 -50
-10 -19 -10 -19 -4 -19 300 0 297 1 311 20 330 11 11 33 20 50 20 l30 0 0
-320z m1000 300 c19 -19 20 -33 20 -330 0 -304 0 -310 -19 -300 -11 5 -33 10
-50 10 l-31 0 0 320 0 320 30 0 c17 0 39 -9 50 -20z"/>
<path d="M620 970 c0 -23 4 -30 20 -30 16 0 20 7 20 30 0 23 -4 30 -20 30 -16
0 -20 -7 -20 -30z"/>
<path d="M424 909 c-3 -6 3 -21 15 -32 16 -16 23 -19 33 -9 9 9 7 16 -7 32
-20 23 -31 25 -41 9z"/>
<path d="M815 900 c-14 -16 -16 -23 -7 -32 10 -10 17 -7 33 9 12 11 18 26 15
32 -10 16 -21 14 -41 -9z"/>
<path d="M572 869 c-18 -5 -50 -27 -72 -49 -72 -72 -77 -171 -15 -272 32 -51
35 -63 35 -132 0 -62 5 -86 25 -126 l25 -50 70 0 70 0 25 50 c20 40 25 64 25
126 0 70 3 80 38 137 33 54 37 68 37 126 0 78 -25 128 -85 167 -43 29 -125 39
-178 23z m132 -43 c75 -31 113 -128 82 -209 -19 -49 -61 -105 -72 -95 -4 4 1
46 10 94 21 106 14 119 -44 79 l-40 -28 -40 28 c-58 40 -65 27 -44 -79 9 -48
14 -89 11 -93 -20 -19 -87 100 -87 153 0 118 116 195 224 150z m-39 -192 c25
16 25 16 20 -6 -3 -13 -9 -41 -13 -63 -7 -33 -12 -40 -32 -40 -20 0 -25 7 -32
40 -4 22 -10 50 -13 63 -5 22 -5 22 20 6 23 -15 27 -15 50 0z m55 -214 l0 -60
-80 0 -80 0 0 60 0 60 80 0 80 0 0 -60z m-20 -120 c-8 -16 -21 -20 -60 -20
-39 0 -52 4 -60 20 -10 19 -8 20 60 20 68 0 70 -1 60 -20z"/>
<path d="M340 700 c0 -16 7 -20 30 -20 23 0 30 4 30 20 0 16 -7 20 -30 20 -23
0 -30 -4 -30 -20z"/>
<path d="M880 700 c0 -16 7 -20 30 -20 23 0 30 4 30 20 0 16 -7 20 -30 20 -23
0 -30 -4 -30 -20z"/>
<path d="M867 634 c-4 -4 -7 -109 -7 -233 l0 -226 33 -55 c18 -30 39 -55 47
-55 8 0 29 25 47 55 l33 55 -2 230 -3 230 -70 3 c-39 1 -74 0 -78 -4z m113
-54 c0 -17 -7 -20 -40 -20 -33 0 -40 3 -40 20 0 17 7 20 40 20 33 0 40 -3 40
-20z m0 -70 c0 -5 -18 -10 -40 -10 -22 0 -40 5 -40 10 0 6 18 10 40 10 22 0
40 -4 40 -10z m-60 -180 c0 -80 -4 -130 -10 -130 -6 0 -10 50 -10 130 0 80 4
130 10 130 6 0 10 -50 10 -130z m60 0 c0 -80 -4 -130 -10 -130 -6 0 -10 50
-10 130 0 80 4 130 10 130 6 0 10 -50 10 -130z m-22 -182 c-3 -7 -11 -13 -18
-13 -7 0 -15 6 -17 13 -3 7 4 12 17 12 13 0 20 -5 18 -12z"/>
<path d="M208 313 c-177 -176 -188 -193 -148 -233 18 -18 33 -20 195 -20 173
0 176 0 200 25 24 24 25 27 25 185 0 158 -1 161 -25 185 -48 49 -64 40 -247
-142z m220 115 c19 -19 15 -48 -8 -48 -13 0 -20 -7 -20 -20 0 -13 7 -20 20
-20 13 0 20 -7 20 -20 0 -13 -7 -20 -20 -20 -13 0 -20 -7 -20 -20 0 -13 7 -20
20 -20 13 0 20 -7 20 -20 0 -13 -7 -20 -20 -20 -13 0 -20 -7 -20 -20 0 -13 7
-20 20 -20 15 0 20 -7 20 -28 0 -36 -16 -52 -52 -52 -21 0 -28 5 -28 20 0 13
-7 20 -20 20 -13 0 -20 -7 -20 -20 0 -13 -7 -20 -20 -20 -13 0 -20 7 -20 20 0
13 -7 20 -20 20 -13 0 -20 -7 -20 -20 0 -13 -7 -20 -20 -20 -13 0 -20 7 -20
20 0 13 -7 20 -20 20 -13 0 -20 -7 -20 -20 0 -16 -7 -20 -35 -20 -71 0 -58 23
107 186 85 85 161 154 169 154 8 0 20 -5 27 -12z"/>
<path d="M275 260 c-69 -70 -66 -83 21 -78 l59 3 0 64 c0 35 -5 66 -10 68 -6
2 -37 -24 -70 -57z m45 -25 c0 -8 -7 -15 -16 -15 -14 0 -14 3 -4 15 7 8 14 15
16 15 2 0 4 -7 4 -15z"/>
</g>
</svg>
