<?xml version="1.0" standalone="no"?>
<!DOCTYPE svg PUBLIC "-//W3C//DTD SVG 20010904//EN"
 "http://www.w3.org/TR/2001/REC-SVG-20010904/DTD/svg10.dtd">
<svg version="1.0" xmlns="http://www.w3.org/2000/svg"
 width="128.000000pt" height="128.000000pt" viewBox="0 0 128.000000 128.000000"
 preserveAspectRatio="xMidYMid meet">

<g transform="translate(0.000000,128.000000) scale(0.100000,-0.100000)"
fill="#000000" stroke="none">
<path d="M715 1263 c-8 -10 -50 -79 -93 -153 l-78 -135 -95 -5 c-75 -4 -94 -8
-94 -20 0 -12 19 -16 94 -20 l95 -5 82 -143 83 -142 -83 -143 -82 -142 -171
-3 -171 -2 -81 140 c-44 77 -81 145 -81 150 0 5 36 73 81 149 l80 140 47 3
c34 2 47 7 47 18 0 19 -90 27 -110 10 -19 -16 -185 -303 -185 -320 0 -16 166
-304 184 -319 7 -6 82 -12 186 -13 l174 -3 78 -135 c43 -74 85 -143 93 -153
14 -16 33 -17 197 -15 l182 3 23 34 c13 19 22 39 20 45 -7 22 -27 16 -42 -14
l-16 -30 -171 2 -172 3 -82 143 -83 142 83 143 82 142 171 3 171 2 81 -140
c44 -77 81 -145 81 -150 0 -6 -21 -46 -46 -90 -28 -47 -44 -86 -40 -95 3 -9
10 -14 15 -10 14 8 111 180 111 195 0 7 -39 80 -86 162 l-86 148 86 148 c47
82 86 155 86 162 0 27 -95 180 -112 180 -25 0 -23 -6 27 -92 25 -43 45 -82 45
-88 0 -5 -37 -73 -81 -150 l-81 -140 -171 2 -171 3 -82 143 -83 142 83 143 82
142 171 3 171 2 21 -35 c11 -19 25 -35 30 -35 23 0 20 23 -6 63 l-29 42 -182
3 c-164 2 -183 1 -197 -15z"/>
<path d="M719 1001 c-37 -38 -39 -82 -4 -116 28 -29 80 -33 111 -11 28 21 6
43 -26 26 -34 -18 -70 2 -70 39 0 37 22 54 61 49 34 -5 53 17 28 33 -28 18
-70 9 -100 -20z"/>
<path d="M907 1014 c-4 -4 -7 -18 -7 -31 0 -18 -5 -23 -25 -23 -16 0 -25 -6
-25 -15 0 -9 9 -15 24 -15 19 0 25 -6 28 -27 2 -17 9 -28 18 -28 9 0 16 11 18
28 3 21 9 27 28 27 15 0 24 6 24 15 0 9 -9 15 -24 15 -19 0 -25 6 -28 27 -3
26 -18 39 -31 27z"/>
<path d="M1072 1008 c-7 -7 -12 -20 -12 -30 0 -13 -8 -18 -25 -18 -16 0 -25
-6 -25 -15 0 -9 9 -15 24 -15 18 0 25 -7 30 -31 7 -37 30 -34 34 4 3 21 9 27
28 27 15 0 24 6 24 15 0 9 -9 15 -25 15 -20 0 -25 5 -25 24 0 30 -12 40 -28
24z"/>
<path d="M158 663 c-3 -60 -5 -68 -23 -68 -35 0 -23 -30 13 -33 27 -3 34 1 42
23 11 29 13 105 4 129 -3 9 -12 16 -20 16 -9 0 -14 -19 -16 -67z"/>
<path d="M275 721 c-9 -16 -55 -141 -55 -151 0 -16 30 -12 36 5 4 9 19 15 35
15 17 0 32 -6 35 -15 8 -19 34 -20 34 -1 0 8 -12 47 -26 85 -24 65 -44 86 -59
62z m21 -88 c-10 -10 -19 5 -10 18 6 11 8 11 12 0 2 -7 1 -15 -2 -18z"/>
<path d="M360 723 c0 -4 12 -43 26 -86 20 -60 30 -77 43 -75 17 3 59 105 60
146 1 36 -26 26 -40 -15 -18 -58 -21 -59 -39 -12 -10 24 -25 45 -34 47 -9 2
-16 0 -16 -5z"/>
<path d="M543 713 c-3 -10 -17 -45 -29 -77 -29 -72 -29 -76 -4 -76 11 0 20 7
20 15 0 10 11 15 35 15 24 0 35 -5 35 -15 0 -16 25 -21 34 -6 3 4 -7 41 -23
82 -29 74 -55 98 -68 62z m31 -68 c3 -9 0 -15 -9 -15 -9 0 -12 6 -9 15 4 8 7
15 9 15 2 0 5 -7 9 -15z"/>
<path d="M710 305 c0 -67 3 -85 14 -85 8 0 16 12 18 27 2 20 10 29 32 34 33 9
46 24 46 56 0 33 -27 53 -71 53 l-39 0 0 -85z m69 41 c9 -10 8 -16 -4 -26 -19
-16 -41 1 -32 24 8 20 21 20 36 2z"/>
<path d="M857 383 c-4 -3 -7 -42 -7 -85 0 -70 2 -79 18 -76 11 2 18 14 20 36
3 29 6 33 30 30 22 -2 28 -9 30 -35 2 -21 9 -33 18 -33 11 0 14 18 14 85 0 67
-3 85 -14 85 -9 0 -16 -12 -18 -32 -2 -28 -8 -34 -30 -36 -22 -3 -28 1 -28 17
0 39 -16 61 -33 44z"/>
<path d="M1020 305 c0 -67 3 -85 14 -85 8 0 16 12 18 27 2 20 10 29 32 34 33
9 46 24 46 56 0 33 -27 53 -71 53 l-39 0 0 -85z m69 42 c8 -10 7 -17 -1 -25
-17 -17 -25 -15 -31 7 -8 31 12 42 32 18z"/>
</g>
</svg>
