<?xml version="1.0" standalone="no"?>
<!DOCTYPE svg PUBLIC "-//W3C//DTD SVG 20010904//EN"
 "http://www.w3.org/TR/2001/REC-SVG-20010904/DTD/svg10.dtd">
<svg version="1.0" xmlns="http://www.w3.org/2000/svg"
 width="128.000000pt" height="128.000000pt" viewBox="0 0 128.000000 128.000000"
 preserveAspectRatio="xMidYMid meet">

<g transform="translate(0.000000,128.000000) scale(0.100000,-0.100000)"
fill="#000000" stroke="none">
<path d="M414 1166 c-28 -28 -34 -42 -34 -75 l0 -41 -178 0 c-125 0 -182 -4
-190 -12 -19 -19 -17 -859 2 -897 33 -63 9 -61 626 -61 617 0 593 -2 626 61
19 38 21 878 2 897 -8 8 -65 12 -190 12 l-178 0 0 41 c0 33 -6 47 -34 75 l-34
34 -192 0 -192 0 -34 -34z m400 -52 c9 -8 16 -26 16 -40 l0 -24 -190 0 -190 0
0 24 c0 51 18 56 190 56 131 0 161 -3 174 -16z m374 -146 c-3 -7 -29 -85 -58
-173 -29 -88 -59 -168 -68 -177 -13 -15 -33 -18 -124 -18 -108 0 -108 0 -108
24 0 51 -18 56 -190 56 -172 0 -190 -5 -190 -56 0 -24 0 -24 -108 -24 -91 0
-111 3 -124 18 -9 9 -39 89 -68 177 -29 88 -55 166 -58 173 -3 9 111 12 548
12 437 0 551 -3 548 -12z m-1018 -410 c30 -27 33 -28 155 -28 l125 0 0 -24 c0
-51 18 -56 190 -56 172 0 190 5 190 56 l0 24 125 0 c122 0 125 1 155 28 21 18
39 54 59 112 l29 85 1 -291 c1 -213 -2 -293 -11 -302 -17 -17 -1079 -17 -1096
0 -9 9 -12 89 -11 302 l1 291 29 -85 c20 -58 38 -94 59 -112z m580 7 l0 -35
-110 0 -110 0 0 35 0 35 110 0 110 0 0 -35z"/>
</g>
</svg>
